<svg width="50" height="50" viewBox="0 0 50 50" fill="none" xmlns="http://www.w3.org/2000/svg">
<path d="M11.7188 25C11.7188 22.5228 12.4013 20.2021 13.587 18.2151V9.78662H5.1585C1.81328 14.1312 0 19.426 0 25C0 30.574 1.81328 35.8688 5.1585 40.2134H13.587V31.7849C12.4013 29.7979 11.7188 27.4772 11.7188 25Z" fill="#FBBD00"/>
<path d="M25 38.2812L19.1406 44.1406L25 50C30.5741 50 35.8688 48.1867 40.2134 44.8415V36.422H31.7938C29.7895 37.612 27.4591 38.2812 25 38.2812Z" fill="#0F9D58"/>
<path d="M13.587 31.7849L5.15851 40.2134C5.82081 41.0735 6.542 41.8973 7.32238 42.6777C12.0443 47.3995 18.3223 50 25 50V38.2813C20.1539 38.2813 15.9066 35.6719 13.587 31.7849Z" fill="#31AA52"/>
<path d="M50 25C50 23.479 49.8623 21.9552 49.5906 20.471L49.3708 19.2699H25V30.9887H36.8605C35.7088 33.2798 33.9379 35.149 31.7937 36.4221L40.2133 44.8416C41.0734 44.1793 41.8972 43.4581 42.6776 42.6777C47.3995 37.9558 50 31.6777 50 25Z" fill="#3C79E6"/>
<path d="M34.3913 15.6087L35.4271 16.6444L43.7135 8.35811L42.6777 7.32236C37.9559 2.60049 31.6778 0 25 0L19.1406 5.85938L25 11.7188C28.5475 11.7188 31.8827 13.1002 34.3913 15.6087Z" fill="#CF2D48"/>
<path d="M25 11.7188V0C18.3223 0 12.0442 2.60049 7.32225 7.32227C6.54188 8.10264 5.82069 8.92637 5.15839 9.78662L13.5869 18.2151C15.9065 14.3281 20.1539 11.7188 25 11.7188Z" fill="#EB4132"/>
</svg>
