<svg width="84" height="84" viewBox="0 0 84 84" fill="none" xmlns="http://www.w3.org/2000/svg">
<path d="M42 2L43.3016 0.481487C42.5526 -0.160496 41.4474 -0.160496 40.6984 0.481487L42 2ZM2 36.2857L0.698417 34.7672L0 35.3658V36.2857H2ZM30.5714 82V84C31.676 84 32.5714 83.1046 32.5714 82H30.5714ZM53.4286 82H51.4286C51.4286 83.1046 52.324 84 53.4286 84V82ZM82 36.2857H84V35.3658L83.3016 34.7672L82 36.2857ZM7.71429 84H30.5714V80H7.71429V84ZM83.3016 34.7672L43.3016 0.481487L40.6984 3.51851L80.6984 37.8042L83.3016 34.7672ZM40.6984 0.481487L0.698417 34.7672L3.30158 37.8042L43.3016 3.51851L40.6984 0.481487ZM32.5714 82V64.8571H28.5714V82H32.5714ZM51.4286 64.8571V82H55.4286V64.8571H51.4286ZM53.4286 84H76.2857V80H53.4286V84ZM84 76.2857V36.2857H80V76.2857H84ZM0 36.2857V76.2857H4V36.2857H0ZM42 55.4286C47.2073 55.4286 51.4286 59.6499 51.4286 64.8571H55.4286C55.4286 57.4407 49.4164 51.4286 42 51.4286V55.4286ZM42 51.4286C34.5836 51.4286 28.5714 57.4407 28.5714 64.8571H32.5714C32.5714 59.6499 36.7927 55.4286 42 55.4286V51.4286ZM76.2857 84C80.5462 84 84 80.5462 84 76.2857H80C80 78.3371 78.3371 80 76.2857 80V84ZM7.71429 80C5.66294 80 4 78.3371 4 76.2857H0C0 80.5462 3.4538 84 7.71429 84V80Z" fill="white"/>
</svg>
