<svg width="13" height="15" viewBox="0 0 13 15" fill="none" xmlns="http://www.w3.org/2000/svg">
<path d="M0.5 0.5V0C0.223858 0 0 0.223858 0 0.5L0.5 0.5ZM12.5 0.5H13C13 0.223858 12.7761 0 12.5 0V0.5ZM12.5 14.5L12.2764 14.9472C12.4314 15.0247 12.6155 15.0164 12.7629 14.9253C12.9103 14.8342 13 14.6733 13 14.5H12.5ZM10.5 13.5L10.7236 13.0528C10.5828 12.9824 10.4172 12.9824 10.2764 13.0528L10.5 13.5ZM8.5 14.5L8.27639 14.9472C8.41716 15.0176 8.58284 15.0176 8.72361 14.9472L8.5 14.5ZM6.5 13.5L6.72361 13.0528C6.58284 12.9824 6.41716 12.9824 6.27639 13.0528L6.5 13.5ZM4.5 14.5L4.27639 14.9472C4.41716 15.0176 4.58284 15.0176 4.72361 14.9472L4.5 14.5ZM0.5 14.5H0C0 14.6733 0.0897262 14.8342 0.237134 14.9253C0.384543 15.0164 0.568613 15.0247 0.723607 14.9472L0.5 14.5ZM2.5 13.5L2.72361 13.0528C2.58284 12.9824 2.41716 12.9824 2.27639 13.0528L2.5 13.5ZM0.5 1H12.5V0H0.5V1ZM12 0.5V14.5H13V0.5H12ZM12.7236 14.0528L10.7236 13.0528L10.2764 13.9472L12.2764 14.9472L12.7236 14.0528ZM10.2764 13.0528L8.27639 14.0528L8.72361 14.9472L10.7236 13.9472L10.2764 13.0528ZM8.72361 14.0528L6.72361 13.0528L6.27639 13.9472L8.27639 14.9472L8.72361 14.0528ZM6.27639 13.0528L4.27639 14.0528L4.72361 14.9472L6.72361 13.9472L6.27639 13.0528ZM1 14.5V0.5H0V14.5H1ZM4.72361 14.0528L2.72361 13.0528L2.27639 13.9472L4.27639 14.9472L4.72361 14.0528ZM2.27639 13.0528L0.276393 14.0528L0.723607 14.9472L2.72361 13.9472L2.27639 13.0528ZM3 5H5V4H3V5ZM7 5H10V4H7V5ZM3 8H5V7H3V8ZM7 8H10V7H7V8ZM7 11H10V10H7V11Z" fill="white"/>
</svg>
