<svg width="60" height="60" viewBox="0 0 60 60" fill="none" xmlns="http://www.w3.org/2000/svg">
<path d="M56.9911 33.8671V54.9873C56.9911 57.7436 54.7486 59.9861 51.9923 59.9861H8.00247C5.24611 59.9861 3.00364 57.7436 3.00364 54.9873V33.8671C3.00364 33.315 3.45128 32.8674 4.0034 32.8674C4.55553 32.8674 5.00317 33.315 5.00317 33.8671V54.9873C5.00317 56.6411 6.34861 57.9866 8.00247 57.9866H18.875V41.1155C18.875 38.3591 21.1174 36.1166 23.8738 36.1166H36.1209C38.8773 36.1166 41.1198 38.3591 41.1198 41.1155V53.9875C41.1198 54.5396 40.6721 54.9873 40.12 54.9873C39.5679 54.9873 39.1203 54.5396 39.1203 53.9875V41.1155C39.1203 39.4617 37.7747 38.1162 36.1209 38.1162H23.8738C22.2201 38.1162 20.8745 39.4617 20.8745 41.1155V57.9866H28.9976V42.2402C28.9976 41.6881 29.4453 41.2404 29.9974 41.2404C30.5495 41.2404 30.9971 41.6881 30.9971 42.2402V57.9866H51.9923C53.646 57.9866 54.9916 56.6411 54.9916 54.9873V33.8671C54.9916 33.315 55.4392 32.8674 55.9913 32.8674C56.5435 32.8674 56.9911 33.3149 56.9911 33.8671ZM6.50282 15.9963C6.50282 16.5484 6.95047 16.9961 7.50259 16.9961C61.8985 16.9961 59.2015 17.0933 59.5989 16.7885C59.8066 16.6286 59.9424 16.3981 59.9797 16.1346C60.0354 15.7329 60.3942 16.7209 53.4094 0.602235C53.2509 0.23657 52.8906 0 52.492 0H7.50247C7.10406 0 6.74352 0.236695 6.58518 0.602235L0.0866867 15.5988C-0.0281616 15.8639 0.00420586 15.443 0.00420586 22.1989C0.0114542 26.7459 3.71147 30.4453 8.25229 30.4453C11.3739 30.4453 14.0982 28.697 15.4985 26.1268C18.626 31.8742 26.864 31.8806 29.9972 26.1307C33.128 31.876 41.3624 31.8772 44.4939 26.1307C45.8932 28.6986 48.6177 30.4453 51.7422 30.4453C56.2903 30.4453 59.9903 26.7453 59.9903 22.1972C59.9903 21.6451 59.5426 21.1975 58.9905 21.1975C58.4384 21.1975 57.9908 21.6451 57.9908 22.1972C57.9908 25.6427 55.1877 28.4458 51.7422 28.4458C48.2968 28.4458 45.4936 25.6427 45.4936 22.1972C45.4936 21.6451 45.046 21.1975 44.4939 21.1975C43.9418 21.1975 43.4941 21.6451 43.4941 22.1972C43.4941 25.6427 40.691 28.4458 37.2456 28.4458C33.8001 28.4458 30.997 25.6427 30.997 22.1972C30.997 21.6451 30.5494 21.1975 29.9972 21.1975C29.4451 21.1975 28.9975 21.6451 28.9975 22.1972C28.9975 25.6427 26.1944 28.4458 22.7489 28.4458C19.3801 28.4458 16.5004 25.7384 16.5004 22.1472C16.5004 21.5951 16.0527 21.1475 15.5006 21.1475C14.9485 21.1475 14.5008 21.5951 14.5008 22.1472C14.5008 25.708 11.6391 28.4458 8.25229 28.4458C4.81234 28.4458 2.00912 25.6419 2.00374 22.1972V16.2035L8.15894 1.99954H51.8358L57.4677 14.9965H7.50259C6.95034 14.9965 6.50282 15.444 6.50282 15.9963Z" fill="black"/>
</svg>
