<svg width="62" height="73" viewBox="0 0 62 73" fill="none" xmlns="http://www.w3.org/2000/svg">
<path d="M0.428589 70.2857V72.2857H4.42859V70.2857H0.428589ZM57.5714 70.2857V72.2857H61.5714V70.2857H57.5714ZM4.42859 70.2857V66.7133H0.428589V70.2857H4.42859ZM23.8572 47.2857H38.1429V43.2857H23.8572V47.2857ZM57.5714 66.7133V70.2857H61.5714V66.7133H57.5714ZM38.1429 47.2857C48.8731 47.2857 57.5714 55.9833 57.5714 66.7133H61.5714C61.5714 53.7739 51.082 43.2857 38.1429 43.2857V47.2857ZM4.42859 66.7133C4.42859 55.9833 13.1269 47.2857 23.8572 47.2857V43.2857C10.918 43.2857 0.428589 53.7739 0.428589 66.7133H4.42859ZM31 0.428574C22.0057 0.428574 14.7143 7.71994 14.7143 16.7143H18.7143C18.7143 9.92908 24.2148 4.42857 31 4.42857V0.428574ZM47.2857 16.7143C47.2857 7.71994 39.9944 0.428574 31 0.428574V4.42857C37.7852 4.42857 43.2857 9.92908 43.2857 16.7143H47.2857ZM31 33C39.9944 33 47.2857 25.7086 47.2857 16.7143H43.2857C43.2857 23.4995 37.7852 29 31 29V33ZM31 29C24.2148 29 18.7143 23.4995 18.7143 16.7143H14.7143C14.7143 25.7086 22.0057 33 31 33V29Z" fill="white"/>
</svg>
